<?xml version="1.0"?>
<svg version="1.1" xmlns="http://www.w3.org/2000/svg" width="200" height="40" style=""><path fill="#32c75e" d="M15.833984375,30.3359375q0-0.615234375,0.0615234375-1.4697265625t0.2802734375-1.4150390625q0.08203125-0.19140625,0.3486328125-0.3759765625t0.560546875-0.2255859375t0.51953125,0.068359375t0.2255859375,0.478515625q0,0.642578125-0.02734375,1.626953125l0,0.423828125q0,0.751953125,0.068359375,1.435546875q0.095703125,0.90234375,0.41015625,1.517578125q0.2734375,0.560546875,0.861328125,0.560546875l0.109375,0q0.806640625-0.0546875,1.189453125-0.669921875t0.51953125-1.462890625q0.123046875-0.779296875,0.123046875-1.640625l0-0.1640625q-0.013671875-0.95703125-0.013671875-1.681640625q0-2.884765625-0.19140625-5.783203125t-0.19140625-5.810546875q0-0.478515625-0.041015625-1.0390625q-0.013671875-0.205078125-0.013671875-0.41015625q0-0.328125,0.041015625-0.62890625q0.068359375-0.478515625,0.3486328125-0.7998046875t0.9501953125-0.3212890625q0.369140625,0,0.6767578125,0.0888671875t0.5537109375,0.3623046875q0.314453125,3.5546875,0.51953125,7.2255859375t0.205078125,7.2529296875q0,1.23046875-0.205078125,2.474609375t-0.751953125,2.2421875t-1.517578125,1.626953125t-2.474609375,0.62890625q-0.90234375,0-1.50390625-0.3212890625t-0.9638671875-0.8818359375t-0.51953125-1.3056640625t-0.1572265625-1.6064453125z M26.72595703125,28.900390625q0-0.9296875,0.2529296875-1.791015625t0.7587890625-1.5380859375t1.2646484375-1.080078125t1.7568359375-0.4033203125q0.615234375,0,1.3603515625,0.1845703125t1.4013671875,0.546875t1.09375,0.9228515625t0.4375,1.28515625q0,0.341796875-0.1162109375,0.51953125t-0.4716796875,0.177734375l-0.150390625-0.02734375q0.396484375,1.06640625,0.68359375,2.1875t0.560546875,2.2421875q0.109375,0.21875,0.1640625,0.3896484375t0.0546875,0.3349609375q0,0.21875-0.123046875,0.3623046875t-0.3212890625,0.2119140625t-0.41015625,0.095703125t-0.3759765625,0.02734375q-0.587890625,0-0.8818359375-0.205078125t-0.423828125-0.560546875t-0.1572265625-0.7998046875t-0.109375-0.8955078125q-0.1640625,0.533203125-0.4306640625,1.0390625t-0.62890625,0.9091796875t-0.8544921875,0.642578125t-1.107421875,0.2392578125q-0.90234375,0-1.517578125-0.51953125t-0.9912109375-1.2783203125t-0.546875-1.6201171875t-0.1708984375-1.599609375z M28.66736328125,28.708984375q0,0.505859375,0.068359375,1.06640625t0.2255859375,1.107421875t0.4033203125,1.0322265625t0.615234375,0.8544921875q0.669921875-0.724609375,0.9912109375-1.763671875t0.57421875-2.0029296875t0.57421875-1.654296875t0.9912109375-0.6904296875q0.423828125,0,0.7109375,0.150390625q-0.13671875-0.341796875-0.451171875-0.6630859375t-0.7041015625-0.587890625t-0.806640625-0.4375t-0.7861328125-0.1708984375q-0.109375,0-0.2529296875,0.0341796875t-0.2255859375,0.0068359375q-0.560546875,0.1640625-0.9228515625,0.5673828125t-0.587890625,0.9501953125t-0.3212890625,1.12109375t-0.095703125,1.080078125z M38.609140625,25.4755859375q-0.0341796875-0.4580078125,0.0546875-0.8408203125t0.35546875-0.6220703125t0.8544921875-0.2392578125q0.13671875,0,0.3349609375,0.0341796875t0.3896484375,0.0888671875t0.3212890625,0.1640625t0.1298828125,0.30078125l0,1.544921875q0.533203125-0.615234375,1.162109375-0.8818359375t1.435546875-0.2666015625q0.615234375,0,1.216796875,0.2802734375t1.134765625,0.7451171875t0.9228515625,1.025390625t0.5673828125,1.12109375q0.109375-0.505859375,0.24609375-1.2373046875t0.4033203125-1.4013671875t0.7041015625-1.1484375t1.162109375-0.478515625q0.779296875,0,1.3125,0.560546875t0.8681640625,1.4560546875t0.505859375,2.0029296875t0.2529296875,2.1875t0.08203125,2.0166015625l0,1.4697265625q0,0.1640625-0.123046875,0.2666015625t-0.3076171875,0.1572265625t-0.3828125,0.068359375t-0.3076171875,0.013671875q-0.423828125,0-0.7724609375-0.1298828125t-0.3486328125-0.6630859375l0-1.23046875t-0.02734375-1.5927734375t-0.095703125-1.708984375t-0.177734375-1.5517578125t-0.2802734375-1.12109375t-0.4169921875-0.4375q-0.341796875,0-0.4921875,0.3828125t-0.2529296875,0.970703125t-0.1572265625,1.244140625t-0.150390625,1.244140625t-0.3076171875,0.9638671875t-0.5810546875,0.3759765625q-0.396484375,0-0.697265625-0.3759765625t-0.5947265625-0.9365234375t-0.587890625-1.203125t-0.6494140625-1.203125q-0.35546875-0.57421875-0.765625-0.9296875q-0.369140625-0.341796875-0.833984375-0.328125l-0.068359375,0q-0.615234375,0.02734375-0.9638671875,0.4443359375t-0.533203125,1.0185546875t-0.2255859375,1.2919921875t-0.041015625,1.2099609375q0,0.4921875,0.08203125,1.1484375q0.0546875,0.4375,0.0546875,0.833984375q0,0.205078125-0.013671875,0.396484375q-0.041015625,0.57421875-0.3076171875,0.9638671875t-0.9912109375,0.3896484375q-0.2734375,0-0.68359375-0.0546875t-0.546875-0.369140625q-0.314453125-0.560546875-0.478515625-1.4150390625t-0.24609375-1.763671875t-0.095703125-1.8046875t-0.013671875-1.5380859375q0-0.451171875-0.0341796875-0.9091796875z M55.85169921875,28.900390625q0-0.9296875,0.2529296875-1.791015625t0.7587890625-1.5380859375t1.2646484375-1.080078125t1.7568359375-0.4033203125q0.615234375,0,1.3603515625,0.1845703125t1.4013671875,0.546875t1.09375,0.9228515625t0.4375,1.28515625q0,0.341796875-0.1162109375,0.51953125t-0.4716796875,0.177734375l-0.150390625-0.02734375q0.396484375,1.06640625,0.68359375,2.1875t0.560546875,2.2421875q0.109375,0.21875,0.1640625,0.3896484375t0.0546875,0.3349609375q0,0.21875-0.123046875,0.3623046875t-0.3212890625,0.2119140625t-0.41015625,0.095703125t-0.3759765625,0.02734375q-0.587890625,0-0.8818359375-0.205078125t-0.423828125-0.560546875t-0.1572265625-0.7998046875t-0.109375-0.8955078125q-0.1640625,0.533203125-0.4306640625,1.0390625t-0.62890625,0.9091796875t-0.8544921875,0.642578125t-1.107421875,0.2392578125q-0.90234375,0-1.517578125-0.51953125t-0.9912109375-1.2783203125t-0.546875-1.6201171875t-0.1708984375-1.599609375z M57.79310546875,28.708984375q0,0.505859375,0.068359375,1.06640625t0.2255859375,1.107421875t0.4033203125,1.0322265625t0.615234375,0.8544921875q0.669921875-0.724609375,0.9912109375-1.763671875t0.57421875-2.0029296875t0.57421875-1.654296875t0.9912109375-0.6904296875q0.423828125,0,0.7109375,0.150390625q-0.13671875-0.341796875-0.451171875-0.6630859375t-0.7041015625-0.587890625t-0.806640625-0.4375t-0.7861328125-0.1708984375q-0.109375,0-0.2529296875,0.0341796875t-0.2255859375,0.0068359375q-0.560546875,0.1640625-0.9228515625,0.5673828125t-0.587890625,0.9501953125t-0.3212890625,1.12109375t-0.095703125,1.080078125z M67.700703125,33.75390625q0-0.396484375,0.0341796875-0.833984375t0.0615234375-0.8203125l0.08203125-2.05078125q0.13671875-2.4609375,0.3349609375-4.83984375t0.3349609375-4.8125q0.08203125-1.33984375,0.123046875-2.6318359375t0.123046875-2.6318359375q-0.0546875-0.109375-0.0546875-0.150390625q0-0.19140625,0.1435546875-0.30078125t0.3349609375-0.1845703125t0.4033203125-0.1025390625t0.3212890625-0.02734375l0.314453125,0q0.423828125,0.0546875,0.615234375,0.2666015625t0.24609375,0.505859375t0.02734375,0.62890625t-0.02734375,0.6220703125q0,1.982421875-0.095703125,4.0400390625t-0.21875,4.12890625t-0.2255859375,4.142578125t-0.1025390625,4.0947265625l0,0.95703125q0,0.642578125-0.3623046875,0.84765625t-1.0048828125,0.205078125q-0.560546875,0-0.984375-0.24609375t-0.423828125-0.806640625z M73.97158203125,14.927734375q0-0.21875,0.1572265625-0.3623046875t0.369140625-0.2255859375t0.46484375-0.109375t0.4443359375-0.02734375q0.396484375,0,0.8408203125,0.109375t0.6630859375,0.478515625q0.396484375,0.669921875,0.5810546875,1.5927734375t0.3486328125,1.7705078125q0.24609375,1.17578125,0.62890625,2.4609375t0.7998046875,2.6181640625t0.8544921875,2.6181640625t0.765625,2.40625q0.396484375-1.654296875,0.7314453125-3.390625t0.642578125-3.47265625t0.642578125-3.47265625t0.7314453125-3.404296875q0.08203125-0.396484375,0.123046875-0.998046875t0.1708984375-1.162109375t0.3759765625-0.9638671875t0.751953125-0.4033203125q0.533203125,0,0.7177734375,0.2939453125t0.1845703125,0.8544921875q-0.13671875,1.544921875-0.4443359375,3.0625t-0.5673828125,3.03515625q-0.369140625,1.873046875-0.7998046875,3.7529296875t-0.806640625,3.7666015625t-0.642578125,3.7802734375t-0.3212890625,3.7939453125q0.02734375,0.08203125,0.08203125,0.19140625t0.0546875,0.1640625q0,0.1640625-0.150390625,0.3076171875t-0.3759765625,0.24609375t-0.4921875,0.1572265625t-0.4990234375,0.0546875q-0.21875,0-0.4990234375-0.02734375t-0.560546875-0.1025390625t-0.4921875-0.1982421875t-0.2666015625-0.314453125q-0.21875-0.642578125-0.4033203125-1.2509765625t-0.3486328125-1.2509765625q-0.779296875-2.802734375-1.6337890625-5.5029296875t-1.5791015625-5.4892578125q-0.341796875-1.2578125-0.5126953125-2.4677734375t-0.5537109375-2.3857421875q0.0546875,0.109375,0.0546875,0.177734375q-0.0546875-0.19140625-0.109375-0.3623046875t-0.123046875-0.3759765625q0,0.0546875,0.013671875,0.068359375t0.013671875,0.041015625q0-0.02734375-0.013671875-0.041015625t-0.013671875-0.041015625z M88.7600390625,29.4609375q0-0.95703125,0.2119140625-2.255859375t0.7177734375-2.4609375t1.3330078125-1.9755859375t2.0849609375-0.8134765625q1.17578125,0,1.763671875,0.6767578125t0.587890625,1.8251953125q0,0.751953125-0.2802734375,1.6474609375t-0.7998046875,1.6953125t-1.23046875,1.3330078125t-1.5859375,0.533203125l-0.35546875-0.02734375q0,0.369140625,0.109375,0.9912109375t0.3212890625,1.2373046875t0.546875,1.080078125t0.8134765625,0.46484375q0.697265625,0,1.33984375-0.560546875t1.216796875-1.244140625t1.06640625-1.244140625t0.90234375-0.560546875q0.21875,0,0.451171875,0.068359375t0.259765625,0.3828125q0,0.19140625-0.1025390625,0.314453125t-0.1845703125,0.2734375q-0.423828125,0.724609375-0.9228515625,1.380859375t-1.1279296875,1.189453125t-1.3740234375,0.8408203125t-1.6474609375,0.3076171875q-1.17578125,0-1.955078125-0.4169921875t-1.2578125-1.12109375t-0.6904296875-1.626953125t-0.2119140625-1.9345703125z M91.2073046875,28.421875l0.3828125,0.341796875q0.2734375,0.24609375,0.546875,0.109375t0.4921875-0.4990234375t0.4033203125-0.8955078125t0.328125-1.09375t0.2119140625-1.09375t0.068359375-0.888671875l0-0.46484375t-0.041015625-0.4921875t-0.1435546875-0.3896484375t-0.3212890625-0.1982421875q-0.068359375-0.013671875-0.123046875-0.013671875q-0.46484375,0-0.79296875,0.587890625q-0.35546875,0.65625-0.57421875,1.5927734375t-0.314453125,1.9208984375t-0.123046875,1.4765625z M100.18521484375,33.75390625q0-0.396484375,0.0341796875-0.833984375t0.0615234375-0.8203125l0.08203125-2.05078125q0.13671875-2.4609375,0.3349609375-4.83984375t0.3349609375-4.8125q0.08203125-1.33984375,0.123046875-2.6318359375t0.123046875-2.6318359375q-0.0546875-0.109375-0.0546875-0.150390625q0-0.19140625,0.1435546875-0.30078125t0.3349609375-0.1845703125t0.4033203125-0.1025390625t0.3212890625-0.02734375l0.314453125,0q0.423828125,0.0546875,0.615234375,0.2666015625t0.24609375,0.505859375t0.02734375,0.62890625t-0.02734375,0.6220703125q0,1.982421875-0.095703125,4.0400390625t-0.21875,4.12890625t-0.2255859375,4.142578125t-0.1025390625,4.0947265625l0,0.95703125q0,0.642578125-0.3623046875,0.84765625t-1.0048828125,0.205078125q-0.560546875,0-0.984375-0.24609375t-0.423828125-0.806640625z M106.45609375,28.572265625q0-1.2578125,0.2939453125-2.4677734375t0.4990234375-2.4130859375q0.0546875-0.314453125,0.4306640625-0.3896484375t0.6357421875-0.0751953125q0.451171875,0,0.724609375,0.13671875q0.109375,0.0546875,0.205078125,0.123046875t0.095703125,0.177734375q0,1.17578125-0.2802734375,2.296875t-0.2802734375,2.37890625q0,0.423828125,0.0615234375,0.7998046875t0.1162109375,0.7451171875l0.08203125,0.396484375q0,0.109375,0.013671875,0.19140625t0.041015625,0.19140625q0,0.24609375-0.3486328125,0.3349609375t-0.6083984375,0.0888671875q-0.396484375,0-0.7314453125-0.1572265625t-0.5263671875-0.5400390625l-0.19140625-0.396484375q-0.1640625-0.314453125-0.1640625-0.7041015625t-0.068359375-0.7177734375z M107.33109375,20.341796875l0-0.259765625q0-0.642578125,0.3212890625-1.1484375t0.9638671875-0.505859375q0.08203125,0,0.1572265625,0.013671875t0.1572265625,0.013671875q0.1640625,0.02734375,0.4306640625,0.1298828125t0.2666015625,0.3212890625l0,0.02734375q-0.0546875,0.109375-0.068359375,0.2255859375t-0.068359375,0.1982421875l0.02734375-0.02734375q-0.1640625,0.423828125-0.2666015625,0.68359375t-0.2255859375,0.4169921875t-0.3076171875,0.2255859375t-0.5263671875,0.068359375q-0.0546875,0-0.19140625-0.013671875t-0.2939453125-0.0546875t-0.2666015625-0.109375t-0.109375-0.205078125z M112.42619140625,25.8515625q0-0.396484375,0.2255859375-0.51953125t0.5673828125-0.123046875q0.560546875,0,0.8544921875,0.2119140625t0.2939453125,0.7451171875q0,0.642578125,0.095703125,1.6064453125t0.2802734375,1.873046875t0.4375,1.5654296875t0.5263671875,0.65625q0.505859375,0,0.8955078125-0.779296875t0.68359375-1.9140625t0.505859375-2.4404296875t0.2939453125-2.3310546875q0.0546875-0.560546875,0.2666015625-0.8134765625t0.7724609375-0.2529296875q0.642578125,0,0.9365234375,0.533203125t0.3759765625,1.3125q0.068359375,0.669921875,0.068359375,1.39453125l0,0.232421875l0,0.546875q0,0.51953125,0.013671875,0.9296875l0.396484375,8.380859375l0.0546875,1.39453125q0.02734375,0.19140625,0.041015625,0.3623046875t0.013671875,0.3623046875q0,0.779296875-0.3349609375,1.0048828125t-1.0869140625,0.2255859375q-0.1640625,0-0.4169921875-0.02734375t-0.4921875-0.109375t-0.41015625-0.2255859375t-0.1708984375-0.3623046875l0.0546875-0.13671875q0.068359375-0.8203125,0.068359375-1.72265625l0-0.287109375q-0.013671875-1.06640625-0.068359375-2.16015625t-0.123046875-2.1875t-0.068359375-2.10546875q-0.19140625,0.423828125-0.4443359375,0.875t-0.587890625,0.8134765625t-0.7587890625,0.6015625t-0.95703125,0.2392578125q-0.779296875,0-1.28515625-0.41015625t-0.7861328125-1.06640625t-0.4033203125-1.4697265625t-0.1640625-1.626953125t-0.0546875-1.5517578125t-0.109375-1.244140625z M123.8240234375,29.4609375q0-0.95703125,0.2119140625-2.255859375t0.7177734375-2.4609375t1.3330078125-1.9755859375t2.0849609375-0.8134765625q1.17578125,0,1.763671875,0.6767578125t0.587890625,1.8251953125q0,0.751953125-0.2802734375,1.6474609375t-0.7998046875,1.6953125t-1.23046875,1.3330078125t-1.5859375,0.533203125l-0.35546875-0.02734375q0,0.369140625,0.109375,0.9912109375t0.3212890625,1.2373046875t0.546875,1.080078125t0.8134765625,0.46484375q0.697265625,0,1.33984375-0.560546875t1.216796875-1.244140625t1.06640625-1.244140625t0.90234375-0.560546875q0.21875,0,0.451171875,0.068359375t0.259765625,0.3828125q0,0.19140625-0.1025390625,0.314453125t-0.1845703125,0.2734375q-0.423828125,0.724609375-0.9228515625,1.380859375t-1.1279296875,1.189453125t-1.3740234375,0.8408203125t-1.6474609375,0.3076171875q-1.17578125,0-1.955078125-0.4169921875t-1.2578125-1.12109375t-0.6904296875-1.626953125t-0.2119140625-1.9345703125z M126.2712890625,28.421875l0.3828125,0.341796875q0.2734375,0.24609375,0.546875,0.109375t0.4921875-0.4990234375t0.4033203125-0.8955078125t0.328125-1.09375t0.2119140625-1.09375t0.068359375-0.888671875l0-0.46484375t-0.041015625-0.4921875t-0.1435546875-0.3896484375t-0.3212890625-0.1982421875q-0.068359375-0.013671875-0.123046875-0.013671875q-0.46484375,0-0.79296875,0.587890625q-0.35546875,0.65625-0.57421875,1.5927734375t-0.314453125,1.9208984375t-0.123046875,1.4765625z M134.68865234375,23.814453125q0-0.109375,0.1298828125-0.1982421875t0.2939453125-0.1298828125t0.3349609375-0.0546875t0.2529296875-0.013671875q0.615234375,0,1.052734375,0.546875t0.7587890625,1.4013671875t0.546875,1.88671875t0.4306640625,2.0576171875t0.4033203125,1.8798828125t0.4443359375,1.3193359375q0.423828125-0.833984375,0.7724609375-2.009765625t0.642578125-2.43359375t0.51953125-2.4814453125t0.3623046875-2.1396484375q0.0546875-0.24609375,0.341796875-0.3076171875t0.478515625-0.0615234375q0.314453125,0,0.546875,0.0888671875t0.232421875,0.3896484375q0,0.505859375-0.123046875,1.3740234375t-0.3349609375,1.9482421875t-0.4921875,2.21484375t-0.6015625,2.1533203125t-0.669921875,1.8046875t-0.6904296875,1.1142578125q-0.1640625,0.19140625-0.5126953125,0.2666015625t-0.5810546875,0.0751953125q-0.806640625,0-1.33984375-0.423828125l0,0.02734375q-0.833984375-0.779296875-1.23046875-1.900390625t-0.57421875-2.337890625t-0.3212890625-2.419921875t-0.4853515625-2.1875q-0.0546875-0.109375-0.13671875-0.3212890625t-0.19140625-0.423828125t-0.1845703125-0.4033203125t-0.0751953125-0.30078125z"/><path fill="#72c732" d=""/></svg>
